<?xml version="1.0" encoding="UTF-8" standalone="no"?>
<!DOCTYPE svg PUBLIC "-//W3C//DTD SVG 1.1//EN"
 "http://www.w3.org/Graphics/SVG/1.1/DTD/svg11.dtd">
<!-- Generated by graphviz version 2.40.1 (20161225.0304)
 -->
<!-- Title: dependencies Pages: 1 -->
<svg width="1280pt" height="284pt"
 viewBox="0.00 0.00 1280.00 284.00" xmlns="http://www.w3.org/2000/svg" xmlns:xlink="http://www.w3.org/1999/xlink">
<g id="graph0" class="graph" transform="scale(1 1) rotate(0) translate(4 280)">
<title>dependencies</title>
<polygon fill="#ffffff" stroke="transparent" points="-4,4 -4,-280 1276,-280 1276,4 -4,4"/>
<text text-anchor="start" x="615.0091" y="-42.4" font-family="sans-serif" font-weight="bold" font-size="14.00" fill="#000000">Legend</text>
<polygon fill="#ffffb3" stroke="transparent" points="402,-10 402,-30 422,-30 422,-10 402,-10"/>
<text text-anchor="start" x="425.629" y="-15.4" font-family="sans-serif" font-size="14.00" fill="#000000"> &#160;Declarations</text>
<polygon fill="#8dd3c7" stroke="transparent" points="515,-10 515,-30 535,-30 535,-10 515,-10"/>
<text text-anchor="start" x="538.7251" y="-15.4" font-family="sans-serif" font-size="14.00" fill="#000000"> &#160;Module</text>
<polygon fill="#80b1d3" stroke="transparent" points="601,-10 601,-30 621,-30 621,-10 601,-10"/>
<text text-anchor="start" x="624.7812" y="-15.4" font-family="sans-serif" font-size="14.00" fill="#000000"> &#160;Bootstrap</text>
<polygon fill="#fdb462" stroke="transparent" points="698,-10 698,-30 718,-30 718,-10 698,-10"/>
<text text-anchor="start" x="721.6732" y="-15.4" font-family="sans-serif" font-size="14.00" fill="#000000"> &#160;Providers</text>
<polygon fill="#fb8072" stroke="transparent" points="794,-10 794,-30 814,-30 814,-10 794,-10"/>
<text text-anchor="start" x="817.7258" y="-15.4" font-family="sans-serif" font-size="14.00" fill="#000000"> &#160;Exports</text>
<g id="clust1" class="cluster">
<title>cluster_AppModule</title>
<polygon fill="none" stroke="#000000" stroke-dasharray="1,5" points="8,-70 8,-268 1264,-268 1264,-70 8,-70"/>
</g>
<g id="clust2" class="cluster">
<title>cluster_AppModule_declarations</title>
<polygon fill="none" stroke="#000000" points="16,-78 16,-130 1256,-130 1256,-78 16,-78"/>
</g>
<g id="clust13" class="cluster">
<title>cluster_AppModule_bootstrap</title>
<polygon fill="none" stroke="#000000" points="573,-208 573,-260 697,-260 697,-208 573,-208"/>
</g>
<!-- AppComponent -->
<g id="node1" class="node">
<title>AppComponent</title>
<polygon fill="#ffffb3" stroke="#000000" points="1247.9399,-122 1142.0601,-122 1142.0601,-86 1247.9399,-86 1247.9399,-122"/>
<text text-anchor="middle" x="1195" y="-99.8" font-family="Times,serif" font-size="14.00" fill="#000000">AppComponent</text>
</g>
<!-- AppModule -->
<g id="node9" class="node">
<title>AppModule</title>
<polygon fill="#8dd3c7" stroke="#000000" points="676.6571,-187 673.6571,-191 652.6571,-191 649.6571,-187 593.3429,-187 593.3429,-151 676.6571,-151 676.6571,-187"/>
<text text-anchor="middle" x="635" y="-164.8" font-family="Times,serif" font-size="14.00" fill="#000000">AppModule</text>
</g>
<!-- AppComponent&#45;&gt;AppModule -->
<g id="edge1" class="edge">
<title>AppComponent&#45;&gt;AppModule</title>
<path fill="none" stroke="#000000" d="M1195,-122.2921C1195,-144.2057 1195,-178 1195,-178 1195,-178 687.091,-178 687.091,-178"/>
<polygon fill="#000000" stroke="#000000" points="687.0911,-174.5001 677.091,-178 687.091,-181.5001 687.0911,-174.5001"/>
</g>
<!-- AboutComponent -->
<g id="node2" class="node">
<title>AboutComponent</title>
<polygon fill="#ffffb3" stroke="#000000" points="1124.3301,-122 1007.6699,-122 1007.6699,-86 1124.3301,-86 1124.3301,-122"/>
<text text-anchor="middle" x="1066" y="-99.8" font-family="Times,serif" font-size="14.00" fill="#000000">AboutComponent</text>
</g>
<!-- AboutComponent&#45;&gt;AppModule -->
<g id="edge2" class="edge">
<title>AboutComponent&#45;&gt;AppModule</title>
<path fill="none" stroke="#000000" d="M1066,-122.1061C1066,-141.3391 1066,-169 1066,-169 1066,-169 686.7177,-169 686.7177,-169"/>
<polygon fill="#000000" stroke="#000000" points="686.7177,-165.5001 676.7177,-169 686.7177,-172.5001 686.7177,-165.5001"/>
</g>
<!-- BrowseByHandComponent -->
<g id="node3" class="node">
<title>BrowseByHandComponent</title>
<polygon fill="#ffffb3" stroke="#000000" points="989.2534,-122 818.7466,-122 818.7466,-86 989.2534,-86 989.2534,-122"/>
<text text-anchor="middle" x="904" y="-99.8" font-family="Times,serif" font-size="14.00" fill="#000000">BrowseByHandComponent</text>
</g>
<!-- BrowseByHandComponent&#45;&gt;AppModule -->
<g id="edge3" class="edge">
<title>BrowseByHandComponent&#45;&gt;AppModule</title>
<path fill="none" stroke="#000000" d="M904,-122.027C904,-138.3976 904,-160 904,-160 904,-160 686.7361,-160 686.7361,-160"/>
<polygon fill="#000000" stroke="#000000" points="686.7361,-156.5001 676.7361,-160 686.7361,-163.5001 686.7361,-156.5001"/>
</g>
<!-- BrowseByDateComponent -->
<g id="node4" class="node">
<title>BrowseByDateComponent</title>
<polygon fill="#ffffb3" stroke="#000000" points="800.3585,-122 633.6415,-122 633.6415,-86 800.3585,-86 800.3585,-122"/>
<text text-anchor="middle" x="717" y="-99.8" font-family="Times,serif" font-size="14.00" fill="#000000">BrowseByDateComponent</text>
</g>
<!-- BrowseByDateComponent&#45;&gt;AppModule -->
<g id="edge4" class="edge">
<title>BrowseByDateComponent&#45;&gt;AppModule</title>
<path fill="none" stroke="#000000" d="M655.1995,-122.1061C655.1995,-122.1061 655.1995,-140.991 655.1995,-140.991"/>
<polygon fill="#000000" stroke="#000000" points="651.6996,-140.9909 655.1995,-150.991 658.6996,-140.991 651.6996,-140.9909"/>
</g>
<!-- NavBarComponent -->
<g id="node5" class="node">
<title>NavBarComponent</title>
<polygon fill="#ffffb3" stroke="#000000" points="615.3655,-122 490.6345,-122 490.6345,-86 615.3655,-86 615.3655,-122"/>
<text text-anchor="middle" x="553" y="-99.8" font-family="Times,serif" font-size="14.00" fill="#000000">NavBarComponent</text>
</g>
<!-- NavBarComponent&#45;&gt;AppModule -->
<g id="edge5" class="edge">
<title>NavBarComponent&#45;&gt;AppModule</title>
<path fill="none" stroke="#000000" d="M604.3023,-122.1061C604.3023,-122.1061 604.3023,-140.991 604.3023,-140.991"/>
<polygon fill="#000000" stroke="#000000" points="600.8023,-140.9909 604.3023,-150.991 607.8023,-140.991 600.8023,-140.9909"/>
</g>
<!-- HomeComponent -->
<g id="node6" class="node">
<title>HomeComponent</title>
<polygon fill="#ffffb3" stroke="#000000" points="472.5451,-122 357.4549,-122 357.4549,-86 472.5451,-86 472.5451,-122"/>
<text text-anchor="middle" x="415" y="-99.8" font-family="Times,serif" font-size="14.00" fill="#000000">HomeComponent</text>
</g>
<!-- HomeComponent&#45;&gt;AppModule -->
<g id="edge6" class="edge">
<title>HomeComponent&#45;&gt;AppModule</title>
<path fill="none" stroke="#000000" d="M415,-122.027C415,-138.3976 415,-160 415,-160 415,-160 583.1018,-160 583.1018,-160"/>
<polygon fill="#000000" stroke="#000000" points="583.1019,-163.5001 593.1018,-160 583.1018,-156.5001 583.1019,-163.5001"/>
</g>
<!-- PageViewComponent -->
<g id="node7" class="node">
<title>PageViewComponent</title>
<polygon fill="#ffffb3" stroke="#000000" points="339.3627,-122 200.6373,-122 200.6373,-86 339.3627,-86 339.3627,-122"/>
<text text-anchor="middle" x="270" y="-99.8" font-family="Times,serif" font-size="14.00" fill="#000000">PageViewComponent</text>
</g>
<!-- PageViewComponent&#45;&gt;AppModule -->
<g id="edge7" class="edge">
<title>PageViewComponent&#45;&gt;AppModule</title>
<path fill="none" stroke="#000000" d="M270,-122.1061C270,-141.3391 270,-169 270,-169 270,-169 583.1299,-169 583.1299,-169"/>
<polygon fill="#000000" stroke="#000000" points="583.1299,-172.5001 593.1299,-169 583.1298,-165.5001 583.1299,-172.5001"/>
</g>
<!-- VolumeLinksComponent -->
<g id="node8" class="node">
<title>VolumeLinksComponent</title>
<polygon fill="#ffffb3" stroke="#000000" points="182.3229,-122 23.6771,-122 23.6771,-86 182.3229,-86 182.3229,-122"/>
<text text-anchor="middle" x="103" y="-99.8" font-family="Times,serif" font-size="14.00" fill="#000000">VolumeLinksComponent</text>
</g>
<!-- VolumeLinksComponent&#45;&gt;AppModule -->
<g id="edge8" class="edge">
<title>VolumeLinksComponent&#45;&gt;AppModule</title>
<path fill="none" stroke="#000000" d="M103,-122.2921C103,-144.2057 103,-178 103,-178 103,-178 583.2549,-178 583.2549,-178"/>
<polygon fill="#000000" stroke="#000000" points="583.2549,-181.5001 593.2549,-178 583.2548,-174.5001 583.2549,-181.5001"/>
</g>
<!-- AppComponent  -->
<g id="node10" class="node">
<title>AppComponent </title>
<polygon fill="#80b1d3" stroke="#000000" points="689.439,-252 580.561,-252 580.561,-216 689.439,-216 689.439,-252"/>
<text text-anchor="middle" x="635" y="-229.8" font-family="Times,serif" font-size="14.00" fill="#000000">AppComponent </text>
</g>
<!-- AppModule&#45;&gt;AppComponent  -->
<g id="edge9" class="edge">
<title>AppModule&#45;&gt;AppComponent </title>
<path fill="none" stroke="#000000" stroke-dasharray="1,5" d="M635,-187.1061C635,-187.1061 635,-205.991 635,-205.991"/>
<polygon fill="#000000" stroke="#000000" points="631.5001,-205.9909 635,-215.991 638.5001,-205.991 631.5001,-205.9909"/>
</g>
</g>
</svg>
